/* XPM */
static char *c442c7f0727e4267b24ce697d98ac9d77h7LtEk2hEQ8Y6zX[] = {
/* columns rows colors chars-per-pixel */
"64 64 252 2 ",
"   c #0B0A10",
".  c #382A18",
"X  c #041839",
"o  c #08152A",
"O  c #3A343A",
"+  c #363335",
"@  c #1A1C20",
"#  c #522E18",
"$  c #443A3C",
"%  c #50362B",
"&  c #643C2A",
"*  c #67332D",
"=  c #3B403A",
"-  c #59442C",
";  c #594837",
":  c #474338",
">  c #684A36",
",  c #744C36",
"<  c #69533C",
"1  c #77533C",
"2  c #70472D",
"3  c #091C54",
"4  c #04184B",
"5  c #0C2357",
"6  c #14285B",
"7  c #1D335A",
"8  c #0D274A",
"9  c #3B3745",
"0  c #2E3653",
"q  c #152C65",
"w  c #19376A",
"e  c #1C3B73",
"r  c #0E2964",
"t  c #243A69",
"y  c #273C75",
"u  c #463947",
"i  c #4B3C55",
"p  c #26477B",
"a  c #37537B",
"s  c #354569",
"d  c #1C457D",
"f  c #484746",
"g  c #574949",
"h  c #5B5548",
"j  c #585B57",
"k  c #4B4B52",
"l  c #695948",
"z  c #775947",
"x  c #685956",
"c  c #785A55",
"v  c #694B4B",
"b  c #5E615A",
"n  c #6C624C",
"m  c #76644D",
"M  c #686559",
"N  c #766859",
"B  c #7D725C",
"V  c #4A5371",
"C  c #5B666B",
"Z  c #686966",
"A  c #7B7569",
"S  c #797976",
"D  c #6F6B6F",
"F  c #615565",
"G  c #82573C",
"H  c #87663D",
"J  c #845A47",
"K  c #8F5B55",
"L  c #88654A",
"P  c #96694B",
"I  c #876A54",
"U  c #946A56",
"Y  c #89725A",
"T  c #97745A",
"R  c #8F714D",
"E  c #A7795B",
"W  c #A87159",
"Q  c #877767",
"!  c #987A64",
"~  c #847B73",
"^  c #9B766E",
"/  c #A37C62",
"(  c #A97C68",
")  c #B07A66",
"_  c #A66E6A",
"`  c #7F8277",
"'  c #AC825D",
"]  c #89816C",
"[  c #898579",
"{  c #988877",
"}  c #9B8973",
"|  c #A4826B",
" . c #AC846B",
".. c #A98567",
"X. c #B2866D",
"o. c #B68A69",
"O. c #A68A76",
"+. c #B58C73",
"@. c #B88A76",
"#. c #AA927C",
"$. c #BC9173",
"%. c #BD937B",
"&. c #B79477",
"*. c #BB946D",
"=. c #B5A17E",
"-. c #C2957D",
";. c #C59878",
":. c #C29270",
">. c #CDA77C",
",. c #2B4C83",
"<. c #284C85",
"1. c #2F548A",
"2. c #2C5286",
"3. c #32558B",
"4. c #355A8D",
"5. c #375587",
"6. c #355B91",
"7. c #3A5D93",
"8. c #345693",
"9. c #325086",
"0. c #3D6295",
"q. c #3E639A",
"w. c #3A6396",
"e. c #386290",
"r. c #3C67A5",
"t. c #435C89",
"y. c #445E98",
"u. c #48668D",
"i. c #426395",
"p. c #42659B",
"a. c #446A9D",
"s. c #4A6C9D",
"d. c #496699",
"f. c #4B729C",
"g. c #58729B",
"h. c #55698F",
"j. c #747B86",
"k. c #466CA1",
"l. c #4A6DA2",
"z. c #4869A6",
"x. c #4C72A4",
"c. c #4E74A9",
"v. c #4779A7",
"b. c #5275A5",
"n. c #5276AA",
"m. c #557AAC",
"M. c #5A7DAD",
"N. c #5779A6",
"B. c #567CB1",
"V. c #5A7EB1",
"C. c #5375B4",
"Z. c #4E6FAB",
"A. c #6376A7",
"S. c #907D93",
"D. c #71848F",
"F. c #5C81AD",
"G. c #5C82B4",
"H. c #5C84B8",
"J. c #6283AC",
"K. c #6884A9",
"L. c #6285B4",
"P. c #6286BA",
"I. c #658ABB",
"U. c #6A8CBB",
"Y. c #698AB4",
"T. c #6C92BD",
"R. c #7494BA",
"E. c #718CB5",
"W. c #688DC1",
"Q. c #6D92C3",
"!. c #7799C6",
"~. c #738FC1",
"^. c #7FA1C9",
"/. c #8C8C8A",
"(. c #868685",
"). c #948D84",
"_. c #8E908A",
"`. c #979589",
"'. c #898C95",
"]. c #949593",
"[. c #9B9A95",
"{. c #999A9A",
"}. c #8D9190",
"|. c #A89889",
" X c #B59987",
".X c #A39E96",
"XX c #B29B93",
"oX c #9FA09C",
"OX c #A8A498",
"+X c #B6A89B",
"@X c #AFA28C",
"#X c #999CA4",
"$X c #9398A8",
"%X c #9CA1AB",
"&X c #9CA3B8",
"*X c #A3A4A3",
"=X c #AAACA6",
"-X c #ABADA9",
";X c #A5A8A9",
":X c #B5ADA5",
">X c #AEB2AB",
",X c #B3B4AD",
"<X c #B8B5A7",
"1X c #A5AAB3",
"2X c #AAAEBA",
"3X c #A8ABB5",
"4X c #ACB2BC",
"5X c #AEB2B7",
"6X c #B4B5B2",
"7X c #B6B9B1",
"8X c #BCBDB4",
"9X c #B1B4BC",
"0X c #BCBEBA",
"qX c #B7B9BA",
"wX c #B1AFBC",
"eX c #A19AAA",
"rX c #C79A84",
"tX c #CBA388",
"yX c #CFAE91",
"uX c #C8B8A9",
"iX c #BFC1B5",
"pX c #BEC1BA",
"aX c #C1C2B6",
"sX c #C1C2BB",
"dX c #C8C3BD",
"fX c #D3C1A8",
"gX c #D7C09E",
"hX c #88A3CD",
"jX c #B4B6C3",
"kX c #B6BAC5",
"lX c #BABCC5",
"zX c #BABDCB",
"xX c #B6BBCA",
"cX c #AFB6C6",
"vX c #97ABD2",
"bX c #BEC1CC",
"nX c #BEC3D7",
"mX c #AFC1E7",
"MX c #C1C1C9",
"NX c #CDCDD5",
"BX c #CFCFD9",
"VX c #CECED9",
"CX c #C6C6D1",
"ZX c #D1CFDA",
"AX c #D3D2DC",
"SX c #D9D7DD",
"DX c #CED1DA",
"FX c #D6D6E1",
"GX c #DADAE3",
"HX c #D7D9E6",
"JX c #DEE1EB",
"KX c #E1E1E9",
/* pixels */
"BXBXAXBXBXZXZXZXNXBXBX9XjXkXkXzXlXzXxXzX#Xj f S S Z b D %X3X#XZ = Z S S j j '.%X1X3X2X5X4X2X2X2X4X2X5X4X4X4X4X4X4X9X0X8XiXpX>X=X",
"NXBXBXBXBXZXZXZXNXBXBX9XjXjXkXkXbXjXbXjX%Xj : S S Z M Z $X1X].j f j S S j k (.$X1X1X2X2X4X4X4X4X4X2X5X4X4X4X4X4X4X9XpXiXiXpX>X=X",
"NXBXBXBXBXZXZXZXAXBXBX4XjXjXkXkXjXCXkXlX{.j : D S S b j {.%X(.f O j D.S j j S %X3X3X2X2X4X4X4X4X5X4X4X4X4X4X4X4X4X9XpXiXiXsX>X-X",
"BXAXAXAXBXZXZXZXAXAXBX9XjXkXkXkXMX9XzXkX{.j f Z S S M b (.{.(.: k S S S j j S $X1X3X2X2X4X4X4X2X5X4X4X4X4X4X4X4X4X9XpXiXiXsX,X-X",
"BXAXAXAXBXZXZXZXAXAXBX9XjXkXkXkXxXzXbXbX}.j Z k S S b j [ [.(.[ M [ S S b j D.%X1X3X2X2X4X4X9X4X5X4X4X4X4X4X4X4X4X9X0X8XiXaX,X-X",
"BXBXZXBXBXZXAXZXAXBXBX9XjXkXkXlXkXzX9XqX_.h j OXOX`.[ :X:X[ [ ).`.M A ` j j S #X3X3X2X2X2X4X4X4X4X4X4X4X4X4X4X4X4X9XpX8XiXaX,X-X",
"BXAXAXAXBXZXAXAXNXBXBX9XjXkXkXlXkXMXMX,X.X:X+X[ ] `.{ ] ] N A M h A N ~ |.OX_.;X;X3X5X2X2X4X4X4X4X4X4X4X4X4X4XcX4X9XpXiXiXsX,X-X",
"AXAXAXAXAXAXAXZXAXAXAX9XjXkXkXzXlX6X-X<X] |.B ] @Xn ] B Q n n [ ] |.~ [ N B n `.#X;X3X4X5X4X4X4X4X4X4X4X4X4XcXjX4X9XpXiXiXsX,X-X",
"BXAXAXAXBXBXBXBXAXAXNXwXzXcXkXMX:XOX{ @X#.B Q m n Q ; n n N h ] @X] Q ] O.} { < Q `.*X6X1X4X4X2X4X9X5XqXqX0X0XoX].{.aXaX8XpX,X-X",
"AXAXAXAXAXAXAXAXNXNXAXjXcXkXqX,X<X`.`.Q Q n m Y l m m B Y Q Q |.Q ! | #.#.O.#.! Y l ~ [.3X5X3XqXqXqXpXpX6XpXsX_.].[.aXiX8XaX,X=X",
"AXAXAXAXAXAXAXAXAXAXBX4XkXqX,X:X{ { |.B n Q ; l - m < m z ! ] < Y | +.%.%.&.&.&.#.m l A ].5X6XqXpX8XiXpX8X8X8X[.}./.pX8XiXaX6X-X",
"AXAXAXAXAXAXAXAXNXAXNXjXqX7X:X{ |.] Q Q N - < ; l Y Y I I L I T T ..$.;.;.$.o.+./ I < l A [ -X0X7XaXiX7X8XaX,X_.}./.pX8XaXaX7X-X",
"AXAXAXAXAXAXAXAXAXBXDX5X6X:X] @X{ . l n N - l I Y Y T T L U ../ /  .-.:.$.o.....+./ Y z ; N A 7X7X8XaXaX,X8X7X[.}./.sX8XaX8X7X-X",
"AXAXAXAXAXAXAXAXAXAXNXqX8X|.{ ] N @X] n Y < - z L | L L P ....T +.$.-.o.o.+.+...../ T I z x x A 8X8X,X8XsX0XoX/.}.].sX8XaX8X7X-X",
"AXAXAXAXAXAXAXAXNXFXAX6X).Q N [ ; ] h - ; - Y > T J P P ..o.E *.-.;.$.$.;.;.-.%.+...+.T > Q g j A 7X8X8XiX8X`.[./.{.pX8XaX8X7X-X",
"AXAXAXAXAXAXAXAXAXBXAX,Xl { ; A l ; n l . # L I G L E o.o.$.;.;.;.tX;.tX>.tX$.%.&.&. .O.< N N h _.8X,XiXiXaX].].(.*X0XpXaX8X7X>X",
"AXAXAXAXAXAXAXAXFXVXCX).B B ~ Q ; l l . # G P o.o.*.*.;.;.rXrXtXtXtXrXtX-.+./  .%.%.*.X.! v A M `.,XaX8XaX0X].].(.*XpXiXaXpX7X-X",
"AXAXAXAXAXAXAXAXAXHXAX[ N ; { l l % - Y / o.' o.:.;.:.:.-.@.@.X.X.X.%.+.@. .@.| ....| | ! ; N ~ [.pX7X8X7X,X{.].'.*X0XiXsXpX7X-X",
"AXAXFXFXAXAXAXAXAXFXNXh l n Q l @ n m R E o.o.o.:.:.;.*.o.../ / X.E @.P  .U > & L I T L  .< A M Z ,X8X8XdX*X].].'.;X0XiXsX0X7X-X",
"AXFXFXFXAXFXAXAXAXHXAXA l Q h . . { < T ..o.o.o.$.X.E E ! L > & # 1 X.+.1 , 1 # z z z 1 ! ! Q M (.].7X8X8X_.].].$X;X0XiXaX0X7X>X",
"FXFXFXFXAXAXAXAXAXAXAX).A h ; : M l z T o.o.o.E P P E T L U # # 2 , ( rX .# J L # 1 1 L ! O.{ n S `.8XpXaX[.{./.#X;X0XpXaX0X7X>X",
"FXFXFXFXAXAXFXFXSXFXZX*X$ Q A . N l m T X.P o.' I I > ; Q ; % N P T X.rX%.L L L J L T ..rXO.|.A [ 0XaX7X8X[.].(.%X1XpXpXpX0X8X-X",
"FXFXFXFXFXFXFXAXAXZXAX/.A + x N h ~ Q |  .:.o.X.E E W W J J U P U  . .rXrXX.T , L T P o.%.O.{ A =X7X7XdX7X[.{.}.%X1XpXaX8X0X8X-X",
"FXFXFXFXFXFXFXAXAXHXAX[.h ; x g ; N ] T / X.$.*.:.o.' ..+...U E %.X.X.rXrXrX( +.+.+.@.X...| { _.-X7XdX7X*X].{.].%X1XsXaX8XpX8X-X",
"FXFXFXFXFXFXFXFXSXAXAXlXA N N N < l Q Q ! ( :.:.;.tXrX-.rXrX-.rXrX( +.rX-.-.@./ @.@.X. .T ! ] .X<X7X0XpX].oX].#X1X3X0XiX8XaX8X>X",
"GXGXFXFXFXFXFXFXAXGXAXlX[.x A Q < > B  X#.%.+.@.$.-.-.-.@.%.%.rX+.+.( E W W U R ( @.X.( / Q { :X8XsXpX8X`.[.].#X1X3X0XaX8XpX7X>X",
"GXGXFXFXFXGXGXGXFXAXAXlX-XZ ~ Q z > Q } +X! | @.@.@.@.@.%.tXrX@.! K * * z v % * T T +. .! Q `.OX7XpX,X8XOX[./.%X1X3X0XaX8XpX7X>X",
"GXGXFXGXGXGXGXGXFXFXAXMXlXZ : A ! J , O.|.|.| ( @.X.+. .%.@.rX) X. .P 2 - - & J | ! / | | Y ).,XpXpX7X,X.X[.'.%X1X3X0XaX8XaX8X>X",
"GXGXGXGXGXGXFXFXFXZXAXMXzXlX(.f O.( U  X#.|. X/ ( X.X.X.-.%.@./ o.T R > # , > < z / U T ! { +X=X8X8XpX=X]..X#X&X3X5X0XiX8XaX8X>X",
"GXGXGXGXGXGXFXAXFXFXAXzXzXbX.Xx ;  X-.@. XXX#.O.U /  .o.X.X.( ( U U R 1 z J 2 z z z L Y Y { .X=XaX,XpX{.*X#X1X2X2X5X0XiX8XaX8X>X",
"GXGXGXGXGXFXFXAXAXGXSXzXnXjX-X).l tX+.!  XuXO.#. XT / (  . .T | c N v         # 2 & % ; n ).).8XuXaX8X[.*X{.2XkXxX9X0XiX8XaX8X>X",
"GXGXFXFXGXGXGXFXHXFXSXMXzXbX-Xx Q l ! T  X+XXX#. X!  XT T | I n & & K K K K _ _ U J - l A ).OX8XB <X8X*X#X#X9X9XzXlXsXiX8XsX8X>X",
"GXKXGXGXSXGXGXGXGXAXSXCXkX5XD x x 9 D N  X+X`.=.|.} ! |.O.} Y < R T U U 1 z < z L I Q n A _.>X.X0XsX7XOX*X{.jXkXzXlXsXuXdXuX8X,X",
"GXFXFXKXGXFXHXHXGXFXAXlXlXlXMXZ '.j.0 S |.|.XXXX{ |. XQ |.|.Q Y R L L ! I L I } L Y Y A A ` -XqX8X,X,X*X{.1X5XqXxXlXpXpX0XpX8X>X",
"JXKXJXGXHXHXnX&XhXhXmXmXvXhXg.V K.u.s C |.uX+XXX{ |.Q XX{ N { Y | ! T ! rX XO.#.O.} A (.A : {.D.$XxX;X;X#X3XcXzXlXMX0XaX8XaX7X-X",
"R.!.R.K.!.hX!.!.H.L.E.Y.^.T.G.Y.K.t.V D M +X<XuX+X|.XX{ A A A +XI }  XO.O.#.} |.O.{ `./.g O %XE.T.U.R.5.i.M.N.J.Y.T.hXE.!.E.!.hX",
"hXb.N.L.N.M.U.N.L.R.R.R.R.J.J.J.K.g.V C [.<X+X:X+XXX|.+X~ A [ [ +X] { }  XO.Q Q { [ j [.h j.V J.L.Y.Y.s.M.F.M.E.U.U.Y.Y.!.U.M.L.",
"Z.k.B.B.m.G.G.m.I.T.hXf.b.V.U.!.K.l.,.7 D { +X[.).+XuX[ [ Z [ h `.OX+X|.|.).~ |.x S /.(.D h.t.x.C.0.4.G.G.B.W.B.J.Y.K.J.Y.M.M.T.",
"f.b.N.s.f.U.U.J.T.F.f.N.F.U.F.E.Y.t u.g.0 S .X[.:X`.OXOX.Xj j ).S [ Z )..X`.A `./.Z D C 8 d.p.l.a w N.m.W.P.f.J.J.M.R.Y.!.N.F.F.",
"a.a.x.c.x.m.c.m.b.s.s.d.i.p 7 X X     o u.h.'.[..X.X`.~ A /.[ A ).).)./.(.k Z j C C C s y.r.x.4.9.f.f.F.G.L.U.L.Y.L.J.U.l.B.L.Y.",
"M.M.x.x.b.b.l.a.b.M.x.x.n.a.l.n.s.5.5.8 w t 7 g.D.j 1X%X].]./.(./.j.'.D.[ A D C V X o     p.u.s.x.x.P.n.U.~.b.n.I.Y.J.M.M.G.d.A.",
"p.x.V.n.G.x.n.b.M.s.p.c.p.n.x.p.k.p.p.l.s.d.b.t.a 7 s V k + + k k V 9 9 @ 7 w s a X o @ @ X J.c.l.p.6.c.L.R.N.f.P.'.uXeXd.v.f.0.",
"a.x.n.B.m.m.x.n.c.m.M.n.b.s.4.i.q.6.p.k.k.l.p.l.4.b.4 7 X 8 7 o 7 t t t 6 w e X w w t.y.l.8.k.Z.y a.7.B.n.N.G.H.P.'.^ )  XC Z.r.",
"k.k.x.m.m.m.x.n.N.a.x.l.M.N.M.M.b.M.N.f.L.M.a.0.4.p p 9.,.<.,.z.p 9.d 2.1.5.9.y.w.g.|.S.OX<XuXyXtXtXuXfXyXgXyXyXyXyXm N N | tXyX",
"x.n.x.G.k.m.l.V.N.V.M.V.M.x.b.N.Y.M.J.M.b.a.s.p <.7.l.l.a.a.0.7.w.i.f.e.f.b.y.r.i.D ( ) ( ' o.E U U ! | &.*.;.>.rX;.tX> g N } yX",
"n.p.x.l.B.n.n.N.x.b.M.N.b.b.Q.U.n.l.n.p.s.7.<.7.1.k.l.N.N.0.a.x.a.k.6.u.4.7.s $XyXyX%.v v v g g v $ g v c Q ! ! R P @.v g g A  X",
"B.l.V.I.Q.Q.L.L.U.U.F.N.Q.L.b.x.V.a.a.4.p.a.z.k.k.m.N.a.s.c.n.6.e.0.<.7.<.8.a D L z ; z H K , G $ u 9 9 u u u 9 u x l v x I T ^ ",
"G.V.W.I.N.x.N.Q.~.U.T.!.G.m.p.b.a.x.N.x.Q.a.q.a.q.p.L.m.0.q.k.,.8.z.4.e.q.p.l.7.i.5.V u u 9 O u u O k u i 9 + + 9 9 f i f g v Q ",
"W.H.x.N.b.N.!.!.U.G.l.M.x.n.n.l.m.G.n.G.a.0.p.6.1.k.l.n.2.6.k.p.p.8.p.k.c.k.p.p.k.l.k.y.l.a.s.e.a h.h.V k $ + $ $ O u 9 u 9 9 k ",
"a.a.a.i.!.~.G.M.L.N.b.M.m.x.n.m.n.m.m.n.V.p.V.a.p.k.4.7.q.c.n.c.x.p.x.l.l.p.l.0.Z.c.v.c.H.K.:XuXuXyX%.X.W J v x u i O $ $ f O u ",
"i.s.!.Q.U.b.L.f.M.a.c.a.c.x.l.x.m.n.G.n.m.n.0.n.q.p.0.m.l.B.n.V.B.m.m.l.x.n.l.G.v.u.+X%.X.@.#.( _ U P ..T m $ u z c x x x g g u ",
"~.T.L.N.G.c.c.s.N.G.s.x.c.l.m.k.l.m.n.m.a.x.p.x.k.x.0.0.q.p.6.x.a.m.6.a.p.x.6.7.n.5.| o.( W ! L K J c N N c c N N x x x k 0 A.C.",
"L.b.F.b.G.G.b.B.b.P.x.G.a.B.x.n.p.l.x.p.4.p.x.0.p.6.0.3.3.4.6.<.p.a.a.k.1.n.a.l.r.x.K.M K c 1 F k s h.i.N.s 0 i y A.M.x.v.v.a.x.",
"F.f.m.f.c.p.s.n.n.k.n.k.c.a.k.k.k.p.p.4.p.p.q.a.a.p.0.a.a.a.p.p.a.x.n.H.c.x.n.V.z.z.H.s.n.z.u.H.a x.m.y.n.M.L.N.C.B.m.x.d.b.k.r.",
"b.x.x.n.M.l.n.x.x.c.6.n.a.k.l.p.l.x.7.l.B.l.k.m.m.k.k.I.V.l.a.p.n.p.7.7.l.0.<.6.9.r.p.k.i.t.k.y.p.Z.y.B.x.b.d.p.d.2.,.3.5.5.t.t.",
"n.k.w.p.k.n.p.a.c.0.n.q.0.n.a.c.m.a.V.P.m.V.V.m.m.n.l.0.p.,.q.q.8.7.8.6.q.p.3.1.r.q.d.k.a.k.k.b.d.n.p.k.7.a.x.7.9.p <.8.6.4.q.7.",
"a.L.I.L.L.N.b.F.I.m.m.n.m.p.B.p.0.p.l.a.p.a.3.p.n.l.0.6.q.x.n.a.6.c.k.q.q.k.c.k.l.c.n.c.m.N.b.b.c.a.0.5.i.9.a.8.y ,.3.3.4.4.6.<.",
"i.0.0.p p.Q.a.4.4.,.p w e e ,.3.,.2.p 2.6.7.p.6.p 6.0.q.p.4.n.q.a.k.x.a.c.c.k.k.k.q.p.p.s.4.3.3.6.3.7.7.e 6.p.8.3.6.p.6.p p 9.e ",
"2.f.a.4.w 5 q p 4.0.a.0.a.a.6.p.0.6.p.a.l.x.m.p.0.4.0.7.l.n.V.x.l.x.0.k.k.q.1.1.3.3.,.,.<.p p p 3.6.9.0.p.6.3.7.q.6.p 4.p p t 6 ",
"e w 0.s.I.I.G.I.N.G.N.N.G.G.M.G.N.l.b.s.i.p.l.s.l.l.n.k.q.7.7.4.7.7.0.p.p.a.4.6.1.p 2.2.1.p 3.p.0.b.x.l.x.p.k.q.<.,.p w w 6 6 5 ",
"I.G.c.n.M.M.I.G.G.M.N.N.M.N.n.n.x.b.x.V.V.m.m.n.n.0.n.p.a.l.1.<.4.q.4.0.a.6.k.6.1.q.p.a.6.x.m.m.m.B.c.k.p 6.p e w e q 5 3 3 4 3 ",
"Q.W.G.W.I.G.G.G.I.N.G.N.n.n.m.V.I.G.m.M.m.m.l.m.x.x.x.c.B.c.G.x.l.k.p.x.x.m.n.B.G.M.M.c.n.k.a.0.q.3.3.e 9.w q q 3 3 r 3 6 4 5 5 ",
"L.b.P.a.G.x.N.m.L.V.I.P.P.G.H.P.G.M.P.G.G.H.n.G.n.n.n.m.k.x.l.k.m.x.a.l.a.l.a.a.3.0.3.1.<.4.p e w e w e q r r r r q q q q t q 6 ",
"M.x.M.n.M.G.x.G.n.V.x.m.n.x.V.m.c.b.a.l.x.p.n.l.a.a.4.k.<.p.1.6.4.p p.p 4.1.3.4.,.3.p e e y e e e w y e e ,.p y ,.,.,.9.p 3 4 5."
};
