/* XPM */
static char *_f79314f6b29459accc0437771dc39cfxNT1QiLW755GCEjM[] = {
/* columns rows colors chars-per-pixel */
"64 64 254 2 ",
"   c black",
".  c #010101",
"X  c #020202",
"o  c gray1",
"O  c #040404",
"+  c gray2",
"@  c #060606",
"#  c #070707",
"$  c gray3",
"%  c #090909",
"&  c gray4",
"*  c #0B0B0B",
"=  c #0C0C0C",
"-  c gray5",
";  c #0E0E0E",
":  c gray6",
">  c #101010",
",  c #111111",
"<  c gray7",
"1  c #131313",
"2  c gray8",
"3  c #151515",
"4  c #161616",
"5  c gray9",
"6  c #181818",
"7  c #191919",
"8  c gray10",
"9  c #1B1B1B",
"0  c gray11",
"q  c #1D1D1D",
"w  c #1E1E1E",
"e  c gray12",
"r  c #202020",
"t  c gray13",
"y  c #222222",
"u  c #232323",
"i  c gray14",
"p  c #252525",
"a  c gray15",
"s  c #272727",
"d  c #282828",
"f  c gray16",
"g  c #2A2A2A",
"h  c gray17",
"j  c #2C2C2C",
"k  c #2D2D2D",
"l  c gray18",
"z  c #2F2F2F",
"x  c gray19",
"c  c #313131",
"v  c #323232",
"b  c gray20",
"n  c #343434",
"m  c #353535",
"M  c gray21",
"N  c #373737",
"B  c gray22",
"V  c #393939",
"C  c #3A3A3A",
"Z  c gray23",
"A  c #3C3C3C",
"S  c gray24",
"D  c #3E3E3E",
"F  c #3F3F3F",
"G  c gray25",
"H  c #414141",
"J  c gray26",
"K  c #434343",
"L  c #444444",
"P  c gray27",
"I  c #464646",
"U  c gray28",
"Y  c #484848",
"T  c #494949",
"R  c gray29",
"E  c #4B4B4B",
"W  c #4C4C4C",
"Q  c gray30",
"!  c #4E4E4E",
"~  c gray31",
"^  c #505050",
"/  c #515151",
"(  c gray32",
")  c #535353",
"_  c gray33",
"`  c #555555",
"'  c #565656",
"]  c gray34",
"[  c #585858",
"{  c gray35",
"}  c #5A5A5A",
"|  c #5B5B5B",
" . c gray36",
".. c #5D5D5D",
"X. c gray37",
"o. c #5F5F5F",
"O. c #606060",
"+. c gray38",
"@. c #626262",
"#. c gray39",
"$. c #646464",
"%. c #656565",
"&. c gray40",
"*. c #676767",
"=. c #686868",
"-. c DimGray",
";. c #6A6A6A",
":. c gray42",
">. c #6C6C6C",
",. c #6D6D6D",
"<. c gray43",
"1. c #6F6F6F",
"2. c gray44",
"3. c #717171",
"4. c #727272",
"5. c gray45",
"6. c #747474",
"7. c gray46",
"8. c #767676",
"9. c #777777",
"0. c gray47",
"q. c #797979",
"w. c gray48",
"e. c #7B7B7B",
"r. c #7C7C7C",
"t. c gray49",
"y. c #7E7E7E",
"u. c gray50",
"i. c #808080",
"p. c #818181",
"a. c gray51",
"s. c #838383",
"d. c #848484",
"f. c gray52",
"g. c #868686",
"h. c gray53",
"j. c #888888",
"k. c #898989",
"l. c gray54",
"z. c #8B8B8B",
"x. c gray55",
"c. c #8D8D8D",
"v. c #8E8E8E",
"b. c gray56",
"n. c #909090",
"m. c gray57",
"M. c #929292",
"N. c #939393",
"B. c gray58",
"V. c #959595",
"C. c gray59",
"Z. c #979797",
"A. c #989898",
"S. c gray60",
"D. c #9A9A9A",
"F. c #9B9B9B",
"G. c gray61",
"H. c #9D9D9D",
"J. c gray62",
"K. c #9F9F9F",
"L. c #A0A0A0",
"P. c gray63",
"I. c #A2A2A2",
"U. c gray64",
"Y. c #A4A4A4",
"T. c #A5A5A5",
"R. c gray65",
"E. c #A7A7A7",
"W. c gray66",
"Q. c #A9A9A9",
"!. c #AAAAAA",
"~. c gray67",
"^. c #ACACAC",
"/. c gray68",
"(. c #AEAEAE",
"). c #AFAFAF",
"_. c gray69",
"`. c #B1B1B1",
"'. c #B2B2B2",
"]. c gray70",
"[. c #B4B4B4",
"{. c gray71",
"}. c #B6B6B6",
"|. c #B7B7B7",
" X c gray72",
".X c #B9B9B9",
"XX c gray73",
"oX c #BBBBBB",
"OX c #BCBCBC",
"+X c gray74",
"@X c gray",
"#X c gray75",
"$X c #C0C0C0",
"%X c #C1C1C1",
"&X c gray76",
"*X c #C3C3C3",
"=X c gray77",
"-X c #C5C5C5",
";X c #C6C6C6",
":X c gray78",
">X c #C8C8C8",
",X c gray79",
"<X c #CACACA",
"1X c #CBCBCB",
"2X c gray80",
"3X c #CDCDCD",
"4X c #CECECE",
"5X c gray81",
"6X c #D0D0D0",
"7X c gray82",
"8X c #D2D2D2",
"9X c LightGray",
"0X c gray83",
"qX c #D5D5D5",
"wX c gray84",
"eX c #D7D7D7",
"rX c #D8D8D8",
"tX c gray85",
"yX c #DADADA",
"uX c gray86",
"iX c gainsboro",
"pX c #DDDDDD",
"aX c gray87",
"sX c #DFDFDF",
"dX c gray88",
"fX c #E1E1E1",
"gX c #E2E2E2",
"hX c gray89",
"jX c #E4E4E4",
"kX c gray90",
"lX c #E6E6E6",
"zX c #E7E7E7",
"xX c gray91",
"cX c #E9E9E9",
"vX c #EAEAEA",
"bX c gray92",
"nX c #ECECEC",
"mX c gray93",
"MX c #EEEEEE",
"NX c #EFEFEF",
"BX c gray94",
"VX c #F1F1F1",
"CX c gray95",
"ZX c #F3F3F3",
"AX c #F4F4F4",
"SX c gray96",
"DX c #F6F6F6",
"FX c gray97",
"GX c #F8F8F8",
"HX c #F9F9F9",
"JX c gray98",
"KX c #FBFBFB",
"LX c gray99",
"PX c white",
/* pixels */
"t.t.t.t.i.i.i.i.i.d.d.d.j.j.j.j.d.c.c.j.c.c.c.c.d.G.n.G.#.j.^.6.#.j.j.j...G.c.^.#.;.#.,.,.5.6.,.6.j.i.c.j.c.d.d.j.d.d.j.j.c.c.c.",
"t.t.t.t.t.i.i.i.i.d.d.d.d.j.j.j.c.j.c.j.j.c.d.j.c.6.^ I t.c.,.5...#.c.^ #.c.d.A.;.;.$.e.n.$.t.,.t.t.j.G.j.n.c.c.c.c.c.c.c.c.c.c.",
"t.t.t.t.i.i.i.i.i.d.i.d.d.d.j.j.c.j.d.c.j.i.n.n.e...^ e.t.;.;.,...e._ d.e.5.U.$.n.i.5.A.#.n.$.e.#.j.j.U..Xd.j.j.c.c.c.c.c.c.c.n.",
"t.t.t.t.i.i.i.i.i.i.d.d.d.d.j.j.d.c.j.d.j.j.d.d.T T ..#.#.#...[ 6.#.6.5.E.c..X^..XE.!.E.A.j.;.,.5...6.A.`..Xd.j.c.j.c.c.c.c.n.n.",
"e.e.t.t.t.i.i.i.i.i.i.i.d.d.j.d.j.j.d.c.i.i.t.T ~ ~ $.;.T ,.[ ..;.;.d.t.d.E.G.@X&X&X-X.X^.!..XC.C.$...U.C.`.A.C.c.c.c.c.c.c.c.n.",
"e.e.t.t.t.i.i.i.i.i.i.i.d.d.d.d.j.d.c.t.j.t.I T B [ $..._ K ^ $.5.e.n.d.G.!.-X<X2X2X9XqX2X<X.X@Xc..._ t.@X!.E.c.n.c.c.c.c.c.c.c.",
"e.t.t.t.t.i.i.i.i.i.d.d.d.d.d.j.d.d.d.i.e._ N I K #._ ~ _ ..;.,.;.d.i.c.^..X&X<X<X<XqX9X2X2X9X<X@XG.[ 5.G..X^.`.n.c.c.c.c.c.c.c.",
"e.e.t.t.t.t.i.i.d.d.d.d.d.d.d.j.j.d.d.d...B B s ....T ^ #...5.e.i.A.A.!.E.@X-X<X9X2X9X<X2X2X2XqX9X.X,.^ `.<X.X!.C.n.c.c.c.c.c.c.",
"e.e.t.t.t.t.i.i.i.i.i.i.d.d.d.d.d.i.d.[ D T c # ^ ^ T _ _ 6.e.c.A.U.G.E.[.<X2X2X<X2XqX2X2X2X9XqXqX.X-X_ n.-X@X^.G.n.C.c.j.n.c.c.",
"e.e.t.t.t.t.i.i.i.i.i.i.d.d.d.d.t.t.i.[ ~ h s N #.T [ I $.5.d.G.G.^.!.[.@X9X2X-X2X2XqX9X9X9XqXuXuX<X-XU.[ .X.X[.!.n.c.c.c.c.j.c.",
"e.e.t.t.t.t.i.i.i.i.i.i.d.d.d.d.d.i.$.N K 6 q ~ ~ _ #...$.e.c.U.!.`.^.`..X-X<X<X<X<XqXqXaXuXuXuXaXuX-X<X6.!.2XqX-XU.c.j.c.d.j.c.",
"e.e.t.t.t.t.i.i.i.i.i.d.d.d.d.d.t.i.;._ c h N T [ ..,...;.i.n.E.`.[.@X@X<X&X<X2X<X<XqXuXgXaXuXaXaXgXjXjX[.5.&X2X9X[.A.c.j.d.j.j.",
"e.e.e.t.t.t.i.i.i.i.d.d.d.d.d.d.d.e.;.K B k _ ....;.;.5.e.,.C.U..X-X<X&X-X-X9XqXqX9XuXuXaXaXaXgXaXjXgXuX9X,.`.aX2X.XA.c.j.j.j.d.",
"e.e.e.t.t.t.i.i.i.d.d.d.d.d.d.d.j.,.~ I h T #.[ #.5.6.n.c.C.A.!.`.9X9X2X-X9X9X2X9X9XuXuXgXgXaXgXjXNXaXuXgXU.A.&X9X&XU.c.j.j.j.j.",
"e.e.t.t.t.t.i.i.d.d.d.d.d.d.d.d.d.6._ I K ^ ..#.#.,.;.t.c.U.E.U.@XqXqX<X<X9XqX9X9XqXaXaXjXjXgXgXcXgXjXjXuX@XE.^.uX2X@Xc.j.d.j.j.",
"e.e.t.t.t.t.i.i.d.d.d.d.d.d.d.d.j.#._ ~ ^ ~ ..[ #.$.6.e.i.C.A.[..X<XuX2XaX2X9X-XgXgXjXaXgXjXjXjXjXNXcXcXjX<X!.U.&X<X<Xj.t.e.t.5.",
"e.t.t.t.t.t.i.i.d.d.d.d.d.d.d.d.i...I ^ D ^ #.$.#.e.,.t.e.t.A.c.^.-X-X9XaX<X2X[.-XgXNXjXjXaXcXjXgXjXVXcXcX9Xd.U..X<X&X,.$.[ _ _ ",
"e.t.t.t.t.t.i.i.d.d.d.d.d.d.d.d.i...^ D s #.;...;.5.i.C.c.n.U.n.n.G.@X-XuX`.9X^.uXuXgXjXuXcXcXcXNXcXcXcXjX9XG.[.U.@X-X9XK ~ I I ",
"e.t.t.t.t.i.i.i.d.d.d.d.d.d.d.d.j.T T h h [ ;.#.6.i.c.e.6.e.d.c.^.j.n.@X&XG.-X@X2X<X<XqXjXuXNXjXcXNXNXVXNXaXE.[.[.C.@X@X..^ .._ ",
"e.t.t.t.i.i.i.i.d.d.d.j.d.j.d.j.t._ I B N ;.$.#.t.,.6.5...T ^ ;.i.d.n.^.&Xt.@XG.&X2X9XaXuXuXqXjXNXVXNXjXVXjXc.c.A.!.&X6.j.t.e.t.",
"e.t.t.t.i.i.i.i.d.d.d.j.d.d.j.j.j.,.K N N ;.$.,...#._ ^ ~ I B D [ $.5.n.<X6.&X.X`.^.!.`.`.<X<X<XuXNXVXjXcXjX!.G.-X`.j.$.C.5.,.;.",
"t.t.t.t.i.i.i.i.d.d.j.j.d.j.j.j.j.6.^ N T $.#.$...I D ~ K I T B k B _ j.@X!.E.^.U.G.#.[ c.!.&X2X9XaXuXjXjXgX&Xt.[.-XA.5.U.5.5.6.",
"t.t.t.i.i.i.d.d.d.d.d.j.j.j.j.j.d.c.T K K ;.;...K ~ ~ [ 5.i.6.$...h c ,.-XqX!.c._ T ~ #.#.A.[.<X@X2XuXNXNXjXuXt.@X9XG.j.i.e.e.e.",
"t.t.t.i.i.i.i.d.d.d.d.j.j.j.j.j.j.j.c ~ T ~ .._ T _ ~ ^ e.;.B h s N B e.&XqX<X$.#.,.e.n.n.G..X<X@X<XuXjXNXcXaXc.&XqXi.^.d.6.e.6.",
"t.t.i.i.i.i.i.d.d.d.d.j.j.j.j.j.j.d._ [ [ $.5._ I c I r q q < k r I ^ j.2XuXuXc.^ K T ~ j..X<X-X2X2X@XaXNXNXgX-X[.qXi.^.e.6.6.6.",
"t.t.i.i.i.i.d.d.d.d.d.j.j.j.j.c.j.c.#.#.^ ;.;...K s q h k ,.$.[ $.T I U.-XjX9X`.e.K K D d.E.q _ &X[..XqXjXcXjX9X2X9Xt.@X,.e.5.t.",
"t.t.i.i.i.i.d.d.j.j.j.j.j.j.c.c.c.c.;...~ 5.$.#.i.#._ ^ #.$.$.;.#.[ $.^.qXaXjXqXj.E.e...#.#.A.n.G.C.@XaXNXcXgXuXuXuX!.@Xt.5.6.6.",
"t.t.i.i.i.i.d.d.j.j.j.j.j.j.c.c.c.n.d.[ _ ,.,.6.c.i...j.C.j._ ;.,.5.i..XuXjXjX9X<Xd.C.d.U.U.E.[.qXuXVXcXjXgXgXgXuX!.<XU.6.6.e.5.",
"t.i.i.i.i.d.d.d.j.j.d.j.j.c.c.c.c.d.t.I ..,.;.,.d.G.^.!.C.d.i.C.6...n.@XuXgXaXuX9X<Xc.,.A.aXgX9X&X9XgXcXcXjXNXHXqX^.c.d.5.e.5.e.",
"t.i.i.i.i.d.d.d.d.d.j.j.j.c.c.c.c.c.d.^ $.;.$.6.e.d.G.!.U.G.G.c.t.,.C.`.uXjXcXcXaXgX2X2X<X.XuXuXqXgXgXNXVXgXcXNXgX`.i.,.6.,.e.5.",
"t.t.i.i.i.d.d.d.d.d.j.j.j.c.c.c.c.c.t.^ 5.;.#.;.;.,.e.G.U.G.C.i.I ,.c.[.9XjXgXjX<X<XcXaXgX9XjXcXgXjXcXjXcXgXcXqX.XuX$.5.5.6.6.5.",
"t.t.i.i.i.d.d.d.d.j.j.j.c.c.c.c.c.n.d._ e.$.#.;.5.t.t.U.G.n.i.~ t.,.d.A.-XaXgXcXuX@X`.gXjXgXjXNXSXuXgXcXNXaXSXVX^.uX;.,.5.6.,.6.",
"t.t.i.i.i.d.d.j.j.j.j.j.j.c.c.c.n.c.c.[ 5.$.$.$.5.5.c.A.A.t.#._ ,...,.c.^.<XuXuXuXgX;.[.aXaXjXcXaXjXcXNXjXVXLXcX-XgX;.;.5.5.6.6.",
"t.i.i.i.i.d.d.j.j.j.j.j.c.c.c.n.j.c.n._ ,.#.....$.e.t.c.j.d.T I [ ^ ..6.!.<X&X.X9XqX#.j.`.qXaXNXSXgXaXcX9XNXSXcXqXjX,.$.,.e.t.6.",
"i.i.i.i.i.d.d.d.j.j.j.j.j.c.c.n.C.c.C.K $._ ....$.;.t.c.d.;.N D ^ 6 ..5.n.[.,.$.C.@XA._ j.&XaXcXcXcXaXcX9XLXSX&XgXjX..$.5.6.6.e.",
"i.i.i.d.i.d.d.j.j.j.j.c.j.c.c.c.j.C.n.T ..;..._ ;.e.,.t.6.N I T h q s [ d.T N I d.[.&Xd.$.`.-XcXNXgXjXjX<XHXcXaXjXNX..$.,.e.e.6.",
"i.i.i.i.i.d.d.j.j.j.j.j.j.c.c.c.C.c.n...,.#.#.;.$.;.6.6._ I T I c q B h h k ..,.c.!.<X^.T c.&XqXaXcXcXgXgXVXNXgXgX`.~ #.$.5.5.5.",
"i.i.i.i.i.d.d.j.j.j.j.j.j.c.c.c.n.j.c.C.6.$.^ $.$.#.,...T _ T I ~ B ^ N K N $.t.G.[.`.@Xt.5.`.9XgXuXgXaXVXHXgXcXVX;.T _ ^ ..5.e.",
"i.i.i.i.i.d.d.j.j.j.j.j.c.c.c.c.c.C.A.n.#.$.#.[ [ #.;.T #.[ c T I 5...6.!.i.U.C.A.^.<X[.A.^ `.@X<XgXgXaXVXSXcXgXjX~ T B k I ,.5.",
"i.i.i.i.d.d.d.j.j.j.j.c.c.c.c.n.n.n.n.C...;.$.[ #.;..._ ~ K ~ T T ..~ [ j.d.C.d.^.[.n.U.@Xd.c.-X2X9X9XaXVXHXgXjX[.K T ^ B ~ ,.5.",
"i.i.i.i.d.d.d.j.j.j.j.c.c.c.c.n.c.n.c.n.#.e...^ e.$.$.T h K c D K 6 6 K ;...~ i.C.C.^.e.t.E.E.[.qXcXuXjXNXHX2XcX~ T _ ..B T ,.5.",
"i.i.i.d.d.d.d.d.j.j.j.j.c.c.c.n.n.n.n.n.i.e.#.#.e.5._ D s 4 s K ^ ,.6.c.[.@X.XE.!.!.$.;.c.C.[..X<XaXuXcXuXVX2XaX~ ^ _ _ B I ,.6.",
"i.i.i.i.d.d.d.j.j.j.j.j.c.c.c.n.n.n.C.n.A.5...5.;.j...~ B _ ^ ;.t.;...A.`..X<X9XqXgX.X[ B d.A..X9XgX2XcXHXLXn.^ D T ^ _ K I $.6.",
"i.i.i.d.d.d.d.d.j.j.j.j.c.c.c.n.n.C.n.C.A.,._ ,.t.;.e.^ ^ ~ ^ _ ..5.[ ,.,.e.E.[.&X-X2X[.6.5.E.`.&XgX-XqXVXLX$.c s N T ..T K #.5.",
"i.i.i.d.d.d.d.d.j.j.j.c.c.c.c.c.c.C.n.C.n.5._ [ ..t.~ e.i.5.$.~ #.$.d.e.!.A.n.G.[.[.<X2Xt.d.E.<X&XuX-XuXVXHXB s q s K #.~ D #.5.",
"i.i.i.d.i.d.d.d.j.j.j.c.c.c.c.c.n.n.n.C.C.t.#.T ,.c.5.e.5.e.[ e.d.e.`.`.&X&X2X`..X<X<X2X2XC.&X.X-X2X-XaXSX@XN s s r B _ K c ..5.",
"t.i.i.i.d.d.d.j.j.j.j.j.c.c.c.c.n.n.n.C.A.j.,.I #.#.n.e.6.C.n.e.c.E.@X^..XuXqXgX9X2X2X<XgX`..XU.E.<XuXaXuX[ h k k h c I D k [ ,.",
"t.i.i.i.d.d.d.j.j.j.j.j.c.c.c.c.n.C.c.G.C.c.5.~ $.~ C.C.-XG.!.t.5.n.E.[.<XqXgXjXgX9X-X2XaXqXuXn.2XuXjXjXNXt.c k c k k K K N [ ;.",
"t.i.i.i.d.d.d.j.d.n.c.j.j.j.c.n.n.C.n.A.C.C.i.$.5.$.C.;.i.C.d.d.i.!.e.A.&X-X<XaXaXcXuX!.<X&XqXt.2XgXjXcXjXqXk B k c N K I k T ;.",
"t.i.i.i.i.d.d.d.c.d.d.c.c.j.c.c.c.c.c.n.n.n.C.[ ,.;.e.c.E.i.!.n.j.[.A.U..X9X<X<XuXcX9XU.<X.X!.c.@X<XcXgXaXgX6 c D B B T D h T ^ ",
"t.i.i.i.d.d.d.d.j.d.c.c.j.j.c.j.c.c.C.c.c.c.n.c.$.5.e.;.6.j.E.E.t.C.C.j.^.qX2XuXgX-XgX2X.XE.C.i.jX9XgX2XaX<X^.q r T T T D r N ~ ",
"t.i.i.i.i.d.d.d.d.d.j.i.i.j.d.d.c.d.d.j.j.j.D $ t.$...i.i.n.G.n.t.U.i..XA.^.2X[.aXaXqX&X^.@Xd.!.^.aX.X2X9X9XuX4 4 < D K I h c K ",
"t.t.i.i.i.d.d.d.d.i.i.i.d.d.d.c.d.j.d.n.I     ,.$.6.$.j.j.;.d.c.c.C.d.A.C.^.E.@X&XuX-X9XgXc.C..XgX9X2X@X`.gX<X4 $ < d._ B s r B ",
"t.t.t.i.i.i.d.d.d.j.i.i.d.i.i.i.d.6.K q <     5...[ t.#.;.6.A.E.j..XG.c.!.A.2X[.<X&X<X.X[.d.@X&X@X2X&X.X.XqXr =   6 ^ K = 6 c h ",
"t.t.t.t.t.i.i.i.i.d.t.d.i.i.d.,.s = 4 $ #     $.$.^ 5...5.6.6.U.@X.Xn.n..X^.^.-X[.[.&XA.&XU..X@X.X<X9XU.qXA.< < < q ..#.~ _ s B ",
"t.t.t.t.t.t.i.i.i.d.d.t.T s k q = r s #     # ..#.[ _ ;.$.e.6.G.n.n.n.d.j.n.i.C.E.&X&XE.E.[.[.@XqX2X!.qX&X# $ $ < r [ k < 4 D #.",
"t.6.t.t.t.t.d.t...k s #   = =   = s         # ^ #.[ ^ ^ ..e.t.e.C.e.$.C.A.C.A.`.@X9X!.A.`.[..X9X-X@X@X-X  # = 4 4 _ #.;._ < $.;.",
"e.d.5.#.T I s = r B r 4 r k = 4 4 4 $ $       ~ #.....~ ^ ^ #...;.5.C.G.G.A.E..X!.-XG.E..XU.<X<X&X&X@X4 <   < # 4 h K q $ = K T ",
"[ 4 $ $ 6 4   # q #     6   # $ <   = $       T #.[ [ _ _ _ ^ #...G.d.!.j.t.A.c.j.G.-X`.@X&X!.G.<X@X# $   6 ..k B #.6.I h $.t.~ ",
"c s = 6 N k 4 4 s 6 = q k 6 h s = # 6 =     # I ..[ ..$.I ~ #.[ 5.j.e.5._ ~ I _ n.E.^.&X-XG.c.9X<X4 = = $ D q < 6 T k = 6 K D s ",
"=     # = $ #     =   4 # # = #   $ 4       # k #.#.[ [ [ ^ ~ [ 5.i.d...[ K I ;.t.d.^.`.C.E.@X^.$   # # $.#.h 6 $.,.#.K 6 6.#.= ",
"B 6 $ r N   < 6 6   $ s # # s $ $ r 6 # #     # [ ..~ [ $.[ T ^ _ 5.$.~ I D D [ e.A.U.c.[.`.~ = # # < 4 r 6 $ < s I = # r _ ..s ",
"<     r 4 4 q r r < < q $ = <     < #   #   #   4 #._ [ #._ _ ^ ,.$._ I T T ^ #.#.e.[.[.^.$ # $ # q < ^ #.B B = ^ ~ < 4 q T   < ",
"4     6 #     $ $ # $ = # # #   # < #   #   #     6 ;...$.$.[ ,.d.[ _ [ ..6.d.`.2X@X&X#.#       K $ $ T q 4 k c $._ N = 5.$.$ c "
};
