/* XPM */
static char *_1465b32c195455bd4335ac39945a3c8Xo1exHirTKXnDSFL[] = {
/* columns rows colors chars-per-pixel */
"83 64 17 1 ",
"  c #0C0703",
". c #833600",
"X c #AE6300",
"o c #463301",
"O c #331B00",
"+ c #7C6B29",
"@ c #FFA700",
"# c #B09E66",
"$ c None",
"% c black",
"& c black",
"* c black",
"= c black",
"- c black",
"; c black",
": c black",
"> c white",
/* pixels */
"$$$$$$$$$$$$$$$$$$$$$$$$$$$$$$$$$$$$$$$$$$$$$$$$$$$$$$$$$$$$$$$$$$$$$$$$$$$$$$$$$$$",
"$$$$$$$$$$$$$$$$$$$$$$$$$$$$$$$$$$$$$$$$$$$$$$$$$$$$$$$$$$$$$$$$$$$$$$$$$$$$$$$$$$$",
"$$$$$$$$$$$$$$$$$$$$$$$$$$$$$$$$$$$$$$$$$$$$$$$$$$$$$$$$$$$$$$$$$$$$$$$$$$$$$$$$$$$",
"$$$$$$$$$$$$$$$$$$$$$$$$$$$$$$$$$$$$$$$$$$$$$$$$$$$$$$$$$$$$$$$$$$$$$$$$$$$$$$$$$$$",
"$$$$$$$$$$$$$$$$$$$$$$$$$$$$$$$$$$$$$$$$$$$$$$$$$$$$$$$$$$$$$$$$$$$$$$$$$$$$$$$$$$$",
"$$$$$$$$$$$$$$$$$$$$$$$$$$$$$$$$$$$$$$$$$$$$$$$$$$$$$$$$$$$$$$$$$$$$$$$$$$$$$$$$$$$",
"$$$$$$$$$$$$$$$$$$$$$$$$$$$$$$$$$$XX$$$$$$$$$$$$$$$$$$$$$$$$$$$$$$$$$$$$$$$$$$$$$$$",
"$$$$$$$$$$$$$$$$$$$$$$$$$$$$$$$$$$XX$$$$$$$$$$$$$$$$$$$$$$$$$$$$$$$$$$$$$$$$$$$$$$$",
"$$$$$$$$$$$$$$$$$$$$$$$$$$$$$$$$$$XX$$$$$$$$$$$$$$$$$$$$$$$$$$$$$$$$$$$$$$$$$$$$$$$",
"$$$$$$$$$$$$$$$$$$$$$$$$$$$$$$$$$$XXXX$$$$$$$$$$$$$$$$$$$$$$$$$$$$$$$$$$$$$$$$$$$$$",
"$$$$$$$$$$$$$$$$$$$$$$$$$$$$$$$$$$XXX$$$$$$$$$$$$$$$$$$$$$$$$$$$$$$$$$$$$$$$$$$$$$$",
"$$$$$$$$$$$$$$$$$$$$$$$$$$$$$$$$$$XXXX$$$$$$$$$$$$$$$$$$$$$$$$$$$$$$$$$$$$$$$$$$$$$",
"$$$$$$$$$$$$$$$$$$$$$$$$$$$$$$$$$$$XX$$$$$$$$$$$$$$$$$$$$$$$$$$$$$$$$$$$$$X$$$$$$$$",
"$$$$$$$$$$$$$$$$$$$$$$$$$$$$$$$$$$$XX$$$$$$$$$$$$$$$$$$$$$$$$$$$$$$$$X$$$$X$$$$$$$$",
"$$$$$$$$$$$$$$$$$$$$$$$$$$$$$$$$$$$XX$$$$$$$$$$$$$$$$$$$$$$$$$$$$$$XXXXXXXX$$$$$$$$",
"$$$$$$$$$$$$$$$$$$$$$$$$$$.$$$$$$$$XXXX$$$$$$$$$$$$$$$$$$$$$$$$$X$XXXXXXXXX$$$$$$$$",
"$$$$$$$$$$$$$$$$$$$$$$$$$$.....$$$$$XX$$$$$$$$$$$$$$$$$$$$$$$$$$XXXXXXXXXX$$$$$$$$$",
"$$$$$$$$$$$$$$$$$$$$$$$$$$$..$$$$$$$XX$$$$$$$$$$$$$$$$$$$$$$$X$XXXXXX$$$$$$$$$$$$$$",
"$$$$$$$$$$$$$$$$$$$$$$$$$$$.....$$$$XXX$$$$$$$$$$$$$$$$$$$$$$XXXXXX$$$$$$$$$$$$$$$$",
"$$$$$$$$$$$$$$$$$$$$$$$$$$$$...$$$$$XX$$$$$$$$$$$$$$$$$$$$$$XXXXX$$$$$$$$$$$$$$$$$$",
"$$$$$$$$$$$$$$$$$$$$$$$$$$$$$....$$$XX$$$$$$$$$$$$$$$$$$$$XXXXX$$$$$$$$$$$$$$$$$$$$",
"$$$$$$$$$$$$$$$$$$$$$$$$$$$$$$..$$$$$XXX$$$$$$$$$$$$$$$$XXXXXX$$$$$$$$$$$$$$$$$$$$$",
"$$$$$$$$$$$$$$$$$$$$$$$$$$$$$$$..$$$$XX$$$$$$$$$$$$$$$XXXXXX$$$$$$$$$$$$$$$$$$$$$$$",
"$$$$$$$$$$$$$$$$$$$$$$$$$$$$$$$$..$$$$X$$$$$$$$$$$$$$$XXXX$$$$$$$$$$$$$$$$$$$$$$$$$",
"$$$$$$$$$$$$$$$$$$$$$$$$$$$$$$$$$..$$$X$$$$$$$$$$$$$$XXX$$$$$$$$$$$$$$$$$$$$$$$$$$$",
"$$$$$$$$$$$$$$$$$$$$$$$$$$$$$$$$$$..$$X$$$$$$$X$$$$XXX$$$$$$$$$$$$$$$$$$$$$.$$$$$$$",
"$$$$$$$$$$$$$$$$$$$$$$$$$$$$$OOOOOO.$$$$$$$$$$X$$$X$$$$$$$$$$$$$$$$$$.$$$$$.$$$$$$$",
"$$$$$$$$$$$$$$$$$$$$$$$$$$$$Oooo+ooOOOO$$$$$$$X$X$$$$$$$$$$$$$$$$$$$$.$$.$..$$$$$$$",
"$$$$$$$$$$$$$$$$$$$$$$$$$$$Ooo++#+o oo+oO$$$$XX$$$$$$$$$$$$$$.$$.$.$........$.$$$$$",
"$$$$$$$$$$$$$$$$$$$$$$$$$$$ oooo+oo o+#+o$$$.X$$$$$$$$$$.$$.................$.$$$$$",
"$$$$$$$$$$$$$$$$$$$$$$$$$$  oo   oo  +#+oO$.$$$$$$$$$$........................$$$$$",
"$$$$$$$$$$$$$$$$$$$$$$$$$ . o .X@ o  o+o O.$$$$$$.........$...................$$$$$",
"$$$$$$$$$$$$$$$$$$$$$$$$$ . O .XX oO OoO O$$$.............$.....$......$...$..$$$$$",
"$$$$$$$$$$$$$$$$$$$$$$$$$ . O .. ooO OO   $$$$$$$$$$$$$$$$$$$$$$$$$$$$$$$$$$$$$$$$$",
"$$$$$$$$$$$$$$$$$$$$$$$$$$  O   ooO  O  o  OOOOO$$$$$$$$$$$$$$$$$$$$$$$$$$$$$$$$$$$",
"$$$$$$$$$$$$$$$$$$$$$$$$$$$  OooOOO    o+o OoooooO$$$$$$$$$$$$$$$$$$$$$$$$$$$$$$$$$",
"$$$$$$$$$$$$$$$$$$$$$$$$$$    OO        o  oo++++o$$$$$$$$$$$$$$$$$$$$$$$$$$$$$$$$$",
"$$$$$$$$$$$$$$$$$$$$$$$$$$  $        +    Oo++##++oO$$$$$$$$$$$$$$$$$$$$$$$$$$$$$$$",
"$$$$$$$$$$$$$$$$$$$$$$$$$$  $   oo  oo+  Ooo++##++oO$$$$$$$$$$$$$$$$$$$$$$$$$$$$$$$",
"$$$$$$$$$$$$$$$$$$$$$$$$$$$  ooo++oo oo  Ooo++++++oO$$$$$$$$$$$$$$$$$$$$$$$$$$$$$$$",
"$$$$$$$$$$$$$$$$$$$$$$$$$  Oo+++  o $ o OOOoo++++ooO$$$$$$$$$$$$$$$$$$$$$$$$$$$$$$$",
"$$$$$$$$$$$$$$$$$$$$$$$$$ O +##oo   $   OOOooo++ooOO$$$$$$$$$$$$$$$$$$$$$$$$$$$$$$$",
"$$$$$$$$$$$$$$$$$$$$$$$$ Ooo+#+oo $ $$$  OOOOOoooO $$$$$$$$$$$$$$$$$$$$$$$$$$$$$$$$",
"$$$$$$$$$$$$$$$$$$$$$$$$ OOoo++o  $$$$$$   OOOO    $$$$$$$$$$$$$$$$$$$$$$$$$$$$$$$$",
"$$$$$$$$$$$$$$$$$$$$$$$$ OO o++oooo $$  OOoooooOO $$$$$$$$$$$$$$$$$$$$$$$$$$$$$$$$$",
"$$$$$$$$$$$$$$$$$$$$$$$$  OO o++o  $$$ OOooo++oO $OOOO$$$$$$$$$$$$$$$$$$$$$$$$$$$$$",
"$$$$$$$$$$$$$$$$$$$$$$$$$  O   oo $$$ OOOoo++oO $Oo++oO$$$$$$$$$$$$$$$$$$$$$$$$$$$$",
"$$$$$$$$$$$$$$$$$$$$$$$$$$       o $$ OOOOoooO  OO+++++O$$$$$$$$$$$$$$$$$$$$$$$$$$$",
"$$$$$$$$$$$$$$$$$$$$$$$$$$$        o   OOOOoO  OOoOOoooo$$$$$$$$$$$$$$$$$$$$$$$$$$$",
"$$$$$$$$$$$$$$$$$$$$$$$$$$$$$     $     OOOO   OO    OOo$$$$$$$$$$$$$$$$$$$$$$$$$$$",
"$$$$$$$$$$$$$$$$$$$$$$$$$$$$$$$$  $$$$        O   $$$   $$$$$$$$$$$$$$$$$$$$$$$$$$$",
"$$$$$$$$$$$$$$$$$$$$$$$$$$$$$$$$$$$$$ Ooo        $$$O   $$$$$$$$$$$$$$$$$$$$$$$$$$$",
"$$$$$$$$$$$$$$$$$$$$$$$$$$$$$$$$$$$$$ OOo       $$$OoO $$$$$$$$$$$$$$$$$$$$$$$$$$$$",
"$$$$$$$$$$$$$$$$$$$$$$$$$$$$$$$$$$$$$   OOO    $$$OooO $$$$$$$$$$$$$$$$$$$$$$$$$$$$",
"$$$$$$$$$$$$$$$$$$$$$$$$$$$$$$$$$$$$$$       $$$$$ Oo $$$$$$$$$$$$$$$$$$$$$$$$$$$$$",
"$$$$$$$$$$$$$$$$$$$$$$$$$$$$$$$$$$$$$$$$$$$$$$$$$    $$$$$$$$$$$$$$$$$$$$$$$$$$$$$$",
"$$$$$$$$$$$$$$$$$$$$$$$$$$$$$$$$$$$$$$$$$$$$$$$$$$$$$$$$$$$$$$$$$$$$$$$$$$$$$$$$$$$",
"$$$$$$$$$$$$$$$$$$$$$$$$$$$$$$$$$$$$$$$$$$$$$$$$$$$$$$$$$$$$$$$$$$$$$$$$$$$$$$$$$$$",
"$$$$$$$$$$$$$$$$$$$$$$$$$$$$$$$$$$$$$$$$$$$$$$$$$$$$$$$$$$$$$$$$$$$$$$$$$$$$$$$$$$$",
"$$$$$$$$$$$$$$$$$$$$$$$$$$$$$$$$$$$$$$$$$$$$$$$$$$$$$$$$$$$$$$$$$$$$$$$$$$$$$$$$$$$",
"$$$$$$$$$$$$$$$$$$$$$$$$$$$$$$$$$$$$$$$$$$$$$$$$$$$$$$$$$$$$$$$$$$$$$$$$$$$$$$$$$$$",
"$$$$$$$$$$$$$$$$$$$$$$$$$$$$$$$$$$$$$$$$$$$$$$$$$$$$$$$$$$$$$$$$$$$$$$$$$$$$$$$$$$$",
"$$$$$$$$$$$$$$$$$$$$$$$$$$$$$$$$$$$$$$$$$$$$$$$$$$$$$$$$$$$$$$$$$$$$$$$$$$$$$$$$$$$",
"$$$$$$$$$$$$$$$$$$$$$$$$$$$$$$$$$$$$$$$$$$$$$$$$$$$$$$$$$$$$$$$$$$$$$$$$$$$$$$$$$$$"
};
